<svg id="Capa_1" enable-background="new 0 0 512 512" height="512" viewBox="0 0 512 512" width="512" xmlns="http://www.w3.org/2000/svg"><g><path d="m322.891 470.926c29.174-29.174 36.606-51.126 18.308-69.424s-26.447-42.306-23.243-55.857c5.349-22.621 24.539-43.013 14.781-65.762l-97.164-55.096 20.427 251.814" fill="#dd636e"/><path d="m495.546 256c0 16.699 19.233 35.056 16.112 50.849-1.792 9.025-10.24 15.999-18.461 22.973l-237.197-73.822 73.822 237.197c-6.974 8.221-13.948 16.668-22.973 18.461-15.792 3.122-34.15-16.112-50.849-16.112s-35.057 19.234-50.849 16.112c-16.256-3.224-25.878-28.072-40.836-34.284-15.226-6.315-39.589 4.399-53.126-4.656-13.629-9.138-13.011-35.768-24.569-47.326-11.569-11.569-38.199-10.951-47.326-24.58-9.066-13.536 1.648-37.9-4.667-53.116-6.212-14.968-31.06-24.59-34.284-40.846-3.121-15.793 16.112-34.15 16.112-50.849s-19.233-35.057-16.112-50.849c3.224-16.256 28.072-25.878 34.284-40.836 6.315-15.226-4.399-39.59 4.656-53.126 9.138-13.629 35.768-13.011 47.326-24.57 11.569-11.569 10.951-38.199 24.58-47.326 13.537-9.066 37.9 1.648 53.116-4.667 14.968-6.212 24.59-31.06 40.846-34.284 15.792-3.122 34.15 16.112 50.849 16.112s35.057-19.233 50.849-16.112c16.256 3.224 25.878 28.072 40.836 34.284 15.226 6.315 39.589-4.399 53.126 4.656 13.629 9.138 13.011 35.768 24.569 47.326 11.569 11.569 38.199 10.951 47.326 24.58 9.066 13.536-1.648 37.9 4.667 53.116 6.212 14.968 31.06 24.59 34.284 40.846 3.122 15.792-16.111 34.15-16.111 50.849z" fill="#e49542"/><path d="m93.109 104.101c-9.498 14.196 1.741 39.755-4.883 55.722-6.521 15.7-32.584 25.785-35.963 42.834-3.276 16.565 16.895 35.83 16.895 53.342s-20.171 36.777-16.895 53.342c3.379 17.05 29.442 27.135 35.963 42.845 6.624 15.957-4.615 41.516 4.893 55.712 9.57 14.299 37.508 13.65 49.644 25.785 9.951 9.952 11.301 30.555 19.367 42.917-15.288-4.584-38.034 4.749-50.942-3.884-13.629-9.138-13.011-35.768-24.569-47.326-11.569-11.569-38.199-10.951-47.326-24.58-9.066-13.536 1.648-37.9-4.667-53.116-6.212-14.968-31.06-24.59-34.284-40.846-3.121-15.793 16.112-34.15 16.112-50.849s-19.233-35.057-16.112-50.849c3.224-16.256 28.072-25.878 34.284-40.836 6.315-15.226-4.399-39.59 4.656-53.126 9.138-13.629 35.768-13.011 47.326-24.57 11.569-11.569 10.951-38.199 24.58-47.326 12.908-8.643 35.675.7 50.952-3.904-8.077 12.351-9.416 32.965-19.388 42.937-12.124 12.126-40.062 11.478-49.643 25.776z" fill="#e28424"/><path d="m443.419 314.328-187.419-58.328 58.328 187.419c-18.42 5.717-38.013 8.808-58.328 8.808-108.374 0-196.227-87.853-196.227-196.227s87.853-196.227 196.227-196.227 196.227 87.853 196.227 196.227c0 20.315-3.091 39.909-8.808 58.328z" fill="#ffd064"/><path d="m98.982 256c0 101.75 77.448 185.41 176.602 195.259-6.439.639-12.97.968-19.584.968-108.374 0-196.227-87.853-196.227-196.227s87.853-196.227 196.227-196.227c6.614 0 13.155.329 19.604.968-99.164 9.838-176.622 93.498-176.622 195.259z" fill="#e7a561"/><g fill="#dd636e"><ellipse cx="282.839" cy="154.865" rx="32.156" ry="16.624" transform="matrix(.257 -.967 .967 .257 60.607 388.518)"/><ellipse cx="229.161" cy="357.135" rx="32.156" ry="16.624" transform="matrix(.257 -.967 .967 .257 -174.806 487.023)"/></g><g><ellipse cx="181.834" cy="182.189" fill="#dd636e" rx="16.624" ry="32.156" transform="matrix(.705 -.709 .709 .705 -75.569 182.555)"/></g><g fill="#dd636e"><ellipse cx="154.995" cy="283.324" rx="32.156" ry="16.624" transform="matrix(.965 -.261 .261 .965 -68.608 50.305)"/><ellipse cx="357.005" cy="228.676" rx="32.156" ry="16.624" transform="matrix(.965 -.261 .261 .965 -47.328 101.161)"/></g></g></svg>